<?xml version="1.0" standalone="no"?><!DOCTYPE svg PUBLIC "-//W3C//DTD SVG 1.1//EN" "http://www.w3.org/Graphics/SVG/1.1/DTD/svg11.dtd"><svg width="200" height="200" viewBox="0 0 200 200" version="1.1" xmlns="http://www.w3.org/2000/svg" xmlns:xlink="http://www.w3.org/1999/xlink"><defs><style type="text/css"><![CDATA[
@font-face { font-family: ifont; src: url("http://at.alicdn.com/t/font_1442373896_4754455.eot?#iefix") format("embedded-opentype"), url("http://at.alicdn.com/t/font_1442373896_4754455.woff") format("woff"), url("http://at.alicdn.com/t/font_1442373896_4754455.ttf") format("truetype"), url("http://at.alicdn.com/t/font_1442373896_4754455.svg#ifont") format("svg"); }

]]></style></defs><g class="transform-group"><g transform="scale(0.1953125, 0.1953125)"><path d="M511.909437 64.710879c-246.959848 0-447.199582 200.275549-447.199582 447.290656 0 247.014083 200.239734 447.289633 447.199582 447.289633 247.050923 0 447.380707-200.275549 447.380707-447.289633C959.290145 264.986428 758.959337 64.710879 511.909437 64.710879L511.909437 64.710879zM511.909437 927.331237c-229.395803 0-415.293886-185.933899-415.293886-415.329702 0-229.396826 185.898083-415.330725 415.293886-415.330725 229.451062 0 415.38496 185.933899 415.38496 415.330725C927.293374 741.397338 741.359476 927.331237 511.909437 927.331237L511.909437 927.331237zM514.365375 544.616383M701.155782 387.983863l-89.145409 0 0-73.565556c0-22.351076-21.876262-40.550595-48.776962-40.550595l-243.920626 0c-26.882281 0-48.776962 18.199519-48.776962 40.550595l0 398.221028c0 22.422708 21.894681 40.62325 48.776962 40.62325l243.920626 0c0.236384 0 0.472768-0.072655 0.727571-0.072655l0 0.072655 137.193776 0c26.882281 0 48.776962-18.200542 48.776962-40.62325l0-284.070085C749.932744 406.221244 728.037039 387.983863 701.155782 387.983863L701.155782 387.983863zM319.313809 722.832498c-6.715965 0-12.193729-4.58544-12.193729-10.19214L307.12008 314.41933c0-5.568838 5.478787-10.119485 12.193729-10.119485l243.920626 0c6.715965 0 12.194752 4.549624 12.194752 10.119485l0 398.221028c0 5.6067-5.478787 10.19214-12.194752 10.19214L319.313809 722.832498 319.313809 722.832498zM713.34951 712.640358c0 5.6067-5.460367 10.19214-12.194752 10.19214l-90.691626 0c1.001818-3.275606 1.547241-6.697546 1.547241-10.19214L612.010373 418.415996l89.145409 0c6.734385 0 12.194752 4.549624 12.194752 10.155301L713.350534 712.640358 713.34951 712.640358zM368.163425 362.030745l36.600629 0 0 30.430087-36.600629 0L368.163425 362.030745 368.163425 362.030745zM474.743942 362.030745l36.58221 0 0 30.430087-36.58221 0L474.743942 362.030745 474.743942 362.030745zM368.163425 452.013219l36.600629 0 0 30.430087-36.600629 0L368.163425 452.013219 368.163425 452.013219zM477.783165 452.013219l36.58221 0 0 30.430087-36.58221 0L477.783165 452.013219 477.783165 452.013219zM368.163425 544.616383l36.600629 0 0 30.430087-36.600629 0L368.163425 544.616383 368.163425 544.616383zM477.783165 544.616383l36.58221 0 0 30.430087-36.58221 0L477.783165 544.616383 477.783165 544.616383zM368.163425 634.671511l36.600629 0 0 30.430087-36.600629 0L368.163425 634.671511 368.163425 634.671511zM477.783165 634.671511l36.58221 0 0 30.430087-36.58221 0L477.783165 634.671511 477.783165 634.671511zM477.783165 634.671511" fill="#929292"></path></g></g></svg>
