<?xml version="1.0" standalone="no"?><!DOCTYPE svg PUBLIC "-//W3C//DTD SVG 1.1//EN" "http://www.w3.org/Graphics/SVG/1.1/DTD/svg11.dtd"><svg width="200" height="200" viewBox="0 0 200 200" version="1.1" xmlns="http://www.w3.org/2000/svg" xmlns:xlink="http://www.w3.org/1999/xlink"><defs><style type="text/css"><![CDATA[
@font-face { font-family: ifont; src: url("http://at.alicdn.com/t/font_1442373896_4754455.eot?#iefix") format("embedded-opentype"), url("http://at.alicdn.com/t/font_1442373896_4754455.woff") format("woff"), url("http://at.alicdn.com/t/font_1442373896_4754455.ttf") format("truetype"), url("http://at.alicdn.com/t/font_1442373896_4754455.svg#ifont") format("svg"); }

]]></style></defs><g class="transform-group"><g transform="scale(0.1953125, 0.1953125)"><path d="M909.146159 634.55729l-63.681368 0L845.464791 511.652076c0-27.52182-22.38994-49.91176-49.909713-49.91176L527.572674 461.740316l0-72.987315 70.50989 0c27.520797 0 49.909713-22.390963 49.909713-49.913806L647.992277 166.026314c0-27.522844-22.38994-49.913806-49.909713-49.913806l-172.815951 0c-27.520797 0-49.909713 22.390963-49.909713 49.913806l0 172.812881c0 27.522844 22.38994 49.913806 49.909713 49.913806l71.501474 0 0 72.987315L227.7941 461.740316c-27.520797 0-49.909713 22.38994-49.909713 49.91176l0 122.905214-63.682391 0c-27.522844 0-49.913806 22.38994-49.913806 49.909713l0 172.816974c0 27.520797 22.390963 49.909713 49.913806 49.909713l172.812881 0c27.522844 0 49.913806-22.38994 49.913806-49.909713L336.928682 684.467003c0-27.520797-22.390963-49.909713-49.913806-49.909713l-78.431304 0L208.583572 511.652076c0-10.594289 8.618285-19.212574 19.210527-19.212574l268.972964 0 0 142.117788-71.501474 0c-27.520797 0-49.909713 22.38994-49.909713 49.909713l0 172.816974c0 27.520797 22.38994 49.909713 49.909713 49.909713l172.815951 0c27.520797 0 49.909713-22.38994 49.909713-49.909713L647.991254 684.467003c0-27.520797-22.38994-49.909713-49.909713-49.909713l-70.50989 0L527.57165 492.439502l267.982404 0c10.593266 0 19.210527 8.618285 19.210527 19.212574l0 122.905214-78.432327 0c-27.522844 0-49.913806 22.38994-49.913806 49.909713l0 172.816974c0 27.520797 22.391986 49.909713 49.913806 49.909713l172.812881 0c27.522844 0 49.913806-22.38994 49.913806-49.909713L959.058942 684.467003C959.060989 656.94723 936.669002 634.55729 909.146159 634.55729zM287.014876 665.256476c10.595312 0 19.21462 8.618285 19.21462 19.210527l0 172.816974c0 10.593266-8.619308 19.210527-19.21462 19.210527L114.201995 876.494505c-10.595312 0-19.21462-8.618285-19.21462-19.210527L94.987375 684.467003c0-10.593266 8.619308-19.210527 19.21462-19.210527L287.014876 665.256476zM598.082564 665.256476c10.593266 0 19.210527 8.618285 19.210527 19.210527l0 172.816974c0 10.593266-8.618285 19.210527-19.210527 19.210527l-172.815951 0c-10.593266 0-19.210527-8.618285-19.210527-19.210527L406.056086 684.467003c0-10.593266 8.618285-19.210527 19.210527-19.210527L598.082564 665.256476zM496.767064 358.053816l-71.501474 0c-10.593266 0-19.210527-8.619308-19.210527-19.21462L406.055063 166.026314c0-10.595312 8.618285-19.21462 19.210527-19.21462l172.815951 0c10.593266 0 19.210527 8.619308 19.210527 19.21462l0 172.812881c0 10.595312-8.618285 19.21462-19.210527 19.21462L496.767064 358.053816zM928.361803 857.283977c0 10.593266-8.620331 19.210527-19.21462 19.210527L736.333278 876.494505c-10.595312 0-19.21462-8.618285-19.21462-19.210527L717.118658 684.467003c0-10.593266 8.620331-19.210527 19.21462-19.210527l172.812881 0c10.595312 0 19.21462 8.618285 19.21462 19.210527L928.360779 857.283977z" fill="#0894ec"></path></g></g></svg>
